<?xml version="1.0" encoding="UTF-8"?>
<svg xmlns="http://www.w3.org/2000/svg" xmlns:xlink="http://www.w3.org/1999/xlink" width="100px" height="100px" viewBox="0 0 100 100" version="1.1">
<g id="surface1">
<path style=" stroke:none;fill-rule:nonzero;fill:rgb(90.196078%,90.196078%,90.196078%);fill-opacity:1;" d="M 100.042969 50.023438 C 100.042969 59.71875 97.273438 69.226562 91.917969 77.355469 C 90.808594 79.109375 89.609375 80.679688 88.222656 82.246094 C 85.085938 85.941406 81.484375 89.082031 77.511719 91.757812 C 76.40625 92.496094 75.296875 93.144531 74.1875 93.789062 C 68.1875 97.113281 61.539062 99.144531 54.796875 99.792969 C 53.226562 99.976562 51.660156 99.976562 50.089844 99.976562 C 45.75 99.976562 41.410156 99.421875 37.160156 98.3125 C 34.761719 97.667969 32.453125 96.835938 30.144531 95.914062 C 28.945312 95.453125 27.835938 94.898438 26.726562 94.25 C 24.050781 92.867188 21.558594 91.203125 19.15625 89.355469 C 18.046875 88.527344 17.03125 87.601562 16.015625 86.679688 C -4.203125 67.933594 -5.40625 36.265625 13.339844 16.042969 C 32.082031 -4.179688 63.753906 -5.472656 83.976562 13.363281 C 94.226562 22.78125 100.042969 36.078125 100.042969 50.023438 Z M 100.042969 50.023438 "/>
<path style=" stroke:none;fill-rule:nonzero;fill:rgb(100%,72.156863%,72.156863%);fill-opacity:1;" d="M 37.898438 54.546875 C 37.898438 54.546875 42.425781 67.195312 38.914062 74.304688 C 35.40625 81.417969 44.457031 89.449219 44.457031 89.449219 C 44.457031 89.449219 68.277344 77.355469 65.230469 71.257812 C 62.183594 65.164062 57.105469 57.132812 58.121094 52.054688 Z M 37.898438 54.546875 "/>
<path style=" stroke:none;fill-rule:nonzero;fill:rgb(100%,72.156863%,72.156863%);fill-opacity:1;" d="M 62.921875 43.1875 C 62.921875 34.265625 55.6875 27.03125 46.765625 27.03125 C 37.839844 27.03125 30.605469 34.265625 30.605469 43.1875 C 30.605469 52.113281 37.839844 59.347656 46.765625 59.347656 C 55.6875 59.347656 62.921875 52.113281 62.921875 43.1875 Z M 62.921875 43.1875 "/>
<path style=" stroke:none;fill-rule:nonzero;fill:rgb(34.117647%,35.294118%,53.72549%);fill-opacity:1;" d="M 37.070312 98.3125 C 34.667969 97.667969 32.359375 96.835938 30.050781 95.914062 L 30.511719 83.632812 L 35.039062 73.476562 C 36.054688 74.304688 37.160156 74.953125 38.269531 75.597656 C 38.546875 75.785156 38.824219 75.875 39.101562 76.0625 C 43.347656 78.09375 50.367188 79.9375 57.105469 74.859375 C 59.597656 72.921875 61.722656 70.519531 63.292969 67.84375 L 76.128906 75.046875 L 76.773438 82.800781 L 77.511719 91.851562 C 76.40625 92.589844 75.296875 93.234375 74.1875 93.882812 C 68.1875 97.207031 61.539062 99.238281 54.796875 99.882812 C 53.226562 100.066406 51.660156 100.066406 50.089844 100.066406 C 45.65625 100.066406 41.316406 99.421875 37.070312 98.3125 Z M 37.070312 98.3125 "/>
<path style=" stroke:none;fill-rule:nonzero;fill:rgb(34.117647%,35.294118%,53.72549%);fill-opacity:1;" d="M 40.207031 65.902344 L 39.5625 72.550781 L 39.191406 76.0625 L 38.730469 81.230469 L 37.070312 98.3125 C 34.667969 97.667969 32.359375 96.835938 30.050781 95.914062 C 28.851562 95.453125 27.742188 94.898438 26.636719 94.25 C 23.957031 92.867188 21.464844 91.203125 19.0625 89.355469 L 17.308594 81.046875 L 17.402344 80.953125 Z M 40.207031 65.902344 "/>
<path style=" stroke:none;fill-rule:nonzero;fill:rgb(34.117647%,35.294118%,53.72549%);fill-opacity:1;" d="M 74.1875 93.789062 C 68.1875 97.113281 61.539062 99.144531 54.796875 99.792969 C 55.167969 93.605469 55.722656 87.695312 56.273438 82.433594 C 56.550781 79.753906 56.921875 77.167969 57.289062 74.859375 C 58.398438 67.472656 59.597656 62.394531 60.429688 61.75 L 66.0625 65.441406 L 88.777344 73.476562 L 88.316406 82.246094 C 85.175781 85.941406 81.574219 89.082031 77.605469 91.757812 C 76.40625 92.496094 75.296875 93.234375 74.1875 93.789062 Z M 74.1875 93.789062 "/>
<path style=" stroke:none;fill-rule:nonzero;fill:rgb(34.117647%,35.294118%,53.72549%);fill-opacity:1;" d="M 19.15625 89.449219 C 18.046875 88.617188 17.03125 87.695312 16.015625 86.773438 L 16.847656 81.140625 L 17.492188 81.046875 L 20.355469 80.679688 L 26.636719 94.34375 C 24.050781 92.867188 21.558594 91.296875 19.15625 89.449219 Z M 19.15625 89.449219 "/>
<path style=" stroke:none;fill-rule:nonzero;fill:rgb(34.117647%,35.294118%,53.72549%);fill-opacity:1;" d="M 91.917969 77.355469 C 90.808594 79.109375 89.609375 80.679688 88.222656 82.246094 C 85.085938 85.941406 81.484375 89.082031 77.511719 91.757812 C 76.40625 92.496094 75.296875 93.144531 74.1875 93.789062 L 73.632812 91.203125 L 76.867188 82.800781 L 80.746094 72.550781 L 88.871094 73.566406 C 89.886719 74.769531 90.902344 76.0625 91.917969 77.355469 Z M 91.917969 77.355469 "/>
<path style=" stroke:none;fill-rule:nonzero;fill:rgb(18.431373%,18.039216%,25.490196%);fill-opacity:1;" d="M 62.183594 28.507812 C 59.691406 24.539062 55.90625 21.582031 51.472656 20.289062 L 48.148438 22.96875 L 49.441406 19.921875 C 48.335938 19.734375 47.320312 19.734375 46.210938 19.734375 L 43.253906 23.523438 L 44.457031 19.828125 C 39.285156 20.472656 34.578125 23.246094 31.527344 27.492188 C 27.742188 32.941406 27.097656 40.511719 30.789062 45.960938 C 31.804688 42.820312 33.007812 39.863281 34.023438 36.816406 C 34.851562 36.910156 35.59375 36.910156 36.421875 36.816406 L 37.625 33.957031 L 37.992188 36.726562 C 41.871094 36.355469 47.503906 35.617188 51.195312 34.972656 L 50.828125 32.847656 L 52.949219 34.601562 C 54.058594 34.324219 54.707031 34.140625 54.707031 33.957031 C 57.382812 38.296875 60.0625 41.066406 62.832031 45.496094 C 63.847656 39.21875 65.601562 34.140625 62.183594 28.507812 Z M 62.183594 28.507812 "/>
<path style=" stroke:none;fill-rule:nonzero;fill:rgb(100%,72.156863%,72.156863%);fill-opacity:1;" d="M 62.371094 42.636719 C 62.371094 41.410156 61.875 40.417969 61.261719 40.417969 C 60.648438 40.417969 60.152344 41.410156 60.152344 42.636719 C 60.152344 43.859375 60.648438 44.851562 61.261719 44.851562 C 61.875 44.851562 62.371094 43.859375 62.371094 42.636719 Z M 62.371094 42.636719 "/>
</g>
</svg>
